:version 1.10
:name ASF
:units
  mass 1
  length 1
  angle deg
:documentation
  ASF file generated by Kaydara
:root
  axis xyz
  order  tx ty tz rx ry rz
  position 0 0 0
  orientation 0 0 0
:bonedata
  begin
    id 1
    name RightUpLegDummy
    direction -1 2.30186e-007 8.31532e-007
    length 4.04083
    axis 0 0 0 xyz
  end
  begin
    id 2
    name RightUpLeg
    direction -0.000919234 -0.999985 0.00544864
    length 17.4221
    axis -3.80308 -0.00076134 -0.0523649 xyz
    dof rx ry rz
  end
  begin
    id 3
    name RightLeg
    direction -0.000919271 -0.999984 -0.00555045
    length 17.1239
    axis 4.00314 0.0181274 -0.183583 xyz
    dof rx ry rz
  end
  begin
    id 4
    name RightFoot
    direction -2.57843e-005 -4.04509e-007 1
    length 6.72091
    axis 8.18909e-005 -0.122003 -0.403008 xyz
    dof rx ry rz
  end
  begin
    id 5
    name RightToes
    direction 0.00116825 -0.014069 0.9999
    length 3.85082
    axis 0.000514414 0.540638 -0.356797 xyz
    dof rx ry rz
  end
  begin
    id 6
    name SpineDummy
    direction 0.0168869 0.966876 -0.254689
    length 6.99894
    axis 0 0 0 xyz
  end
  begin
    id 7
    name Spine
    direction -0.0132008 0.999903 0.00446247
    length 11.1999
    axis -0.00148109 0.00725429 0.756411 xyz
    dof rx ry rz
  end
  begin
    id 8
    name Spine1
    direction 0 0 0
    length 0
    axis -0.000934958 0.0245693 1.46543 xyz
    dof rx ry rz
  end
  begin
    id 9
    name HEadDummy
    direction -0.0255732 0.999672 0.00128215
    length 3.43865
    axis -0.000934958 0.0245693 1.46543 xyz
  end
  begin
    id 10
    name HEad
    direction -0.0472656 0.980052 0.19304
    length 5.12695
    axis -0.000934954 0.0245693 1.46543 xyz
    dof rx ry rz
  end
  begin
    id 11
    name LeftShoulder1Dummy
    direction 0.953098 0.301717 -0.023914
    length 3.68488
    axis -0.000934958 0.0245693 1.46543 xyz
  end
  begin
    id 12
    name LeftShoulder1
    direction 0.962466 0.271167 0.0112566
    length 3.13809
    axis -0.000934958 0.0245693 1.46543 xyz
    dof rx ry rz
  end
  begin
    id 13
    name LeftArm
    direction 0.999943 0.00455037 -0.00961766
    length 11.3419
    axis -23.1648 0.685459 1.22814 xyz
    dof rx ry rz
  end
  begin
    id 14
    name LeftForeArm
    direction 0.999332 0.0131969 0.0340885
    length 8.70632
    axis -9.90633 0.618216 0.0826942 xyz
    dof rx ry rz
  end
  begin
    id 15
    name LeftHand
    direction 0.994373 -0.0366703 0.0993905
    length 5.32135
    axis 0.00675269 0.680415 0.445699 xyz
    dof rx ry rz
  end
  begin
    id 16
    name RightShoulderDummy
    direction -0.967298 0.252589 -0.0230903
    length 3.68488
    axis -0.000934958 0.0245693 1.46543 xyz
  end
  begin
    id 17
    name RightShoulder
    direction -0.975062 0.221602 0.0120823
    length 3.13809
    axis 0.216257 0.0246515 1.45863 xyz
    dof rx ry rz
  end
  begin
    id 18
    name RightArm
    direction -0.99886 -0.00851186 -0.0469687
    length 10.3947
    axis -23.196 0.23503 -0.532632 xyz
    dof rx ry rz
  end
  begin
    id 19
    name RightForeArm
    direction -0.99909 0.00114866 0.0426317
    length 8.68355
    axis -9.91764 -0.134943 0.610517 xyz
    dof rx ry rz
  end
  begin
    id 20
    name RightHand
    direction -0.992888 -0.0489538 0.10852
    length 5.28593
    axis -0.00275396 -0.197403 0.246414 xyz
    dof rx ry rz
  end
  begin
    id 21
    name LeftUpLegDummy
    direction 1 -2.30186e-007 -8.31532e-007
    length 4.04083
    axis 0 0 0 xyz
  end
  begin
    id 22
    name LeftUpLeg
    direction -0.000920097 -1 2.79241e-006
    length 17.4221
    axis -3.48782 0.00143434 -0.0532288 xyz
    dof rx ry rz
  end
  begin
    id 23
    name LeftLeg
    direction -0.000920097 -1 2.7912e-006
    length 17.1239
    axis 3.68162 -0.00806512 -0.0529896 xyz
    dof rx ry rz
  end
  begin
    id 24
    name LeftFoot
    direction -2.57845e-005 -3.987e-007 1
    length 6.72091
    axis 3.02372e-005 -0.00147829 -0.214229 xyz
    dof rx ry rz
  end
  begin
    id 25
    name LeftToes
    direction 0.00813577 -0.00488255 0.999955
    length 3.85048
    axis 3.89895e-005 -0.0014783 -0.214229 xyz
    dof rx ry rz
  end
:hierarchy
  begin
    root RightUpLegDummy SpineDummy LeftUpLegDummy
    RightUpLegDummy RightUpLeg
    RightUpLeg RightLeg
    RightLeg RightFoot
    RightFoot RightToes
    SpineDummy Spine
    Spine Spine1
    Spine1 HEadDummy LeftShoulder1Dummy RightShoulderDummy
    HEadDummy HEad
    LeftShoulder1Dummy LeftShoulder1
    LeftShoulder1 LeftArm
    LeftArm LeftForeArm
    LeftForeArm LeftHand
    RightShoulderDummy RightShoulder
    RightShoulder RightArm
    RightArm RightForeArm
    RightForeArm RightHand
    LeftUpLegDummy LeftUpLeg
    LeftUpLeg LeftLeg
    LeftLeg LeftFoot
    LeftFoot LeftToes
  end

:SAMPLES-PER-SECOND 30
:FULLY-SPECIFIED
:DEGREES
23
root  -36.4811 34.7536 8.72406 -170.004 80.8589 -178.532
RightUpLeg  -8.5485 -14.9724 -1.37212
RightLeg  6.29799 -0.908041 -0.040321
RightFoot  5.36969 0.0226103 0.0614515
RightToes  -25.7613 -0.116402 -0.220893
Spine  -2.1242 0.341981 -0.039305
Spine1  -4.33574 0.778291 0.473838
HEad  -63.5571 -7.86569 7.44935
LeftShoulder1  -1.94126e-019 -3.10601e-018 -2.51263e-017
LeftArm  -10.7384 25.8091 -80.1661
LeftForeArm  34.0305 -13.3858 -2.23969
LeftHand  -0.350471 -1.03121 6.49659
RightShoulder  -4.96962e-017 0 -2.36833e-017
RightArm  -27.3951 -23.3751 77.1076
RightForeArm  55.0882 14.0385 1.26555
RightHand  -0.358126 -0.94696 -9.30313
LeftUpLeg  -7.40806 3.45297 1.26788
LeftLeg  5.90024 13.2416 0.507577
LeftFoot  5.12916 -0.0123206 1.33295
LeftToes  -21.7099 1.83942e-006 5.51297e-008
24
root  -36.4741 34.7636 8.70471 -170.06 80.731 -178.625
RightUpLeg  -8.41877 -15.1379 -1.3708
RightLeg  6.00584 -0.967805 -0.0381181
RightFoot  5.48596 0.0230571 0.0550676
RightToes  -25.7486 -0.116118 -0.220455
Spine  -2.12904 0.400652 -0.0953146
Spine1  -4.3469 0.900276 0.36382
HEad  -63.6557 -8.27564 7.53731
LeftShoulder1  -1.94126e-019 -3.10601e-018 -2.51263e-017
LeftArm  -10.5908 25.6768 -80.2712
LeftForeArm  33.8914 -13.8461 -2.30335
LeftHand  -0.349303 -1.0753 6.51462
RightShoulder  -4.96962e-017 0 -2.36833e-017
RightArm  -26.8861 -23.1631 77.1868
RightForeArm  54.6556 14.3299 1.23455
RightHand  -0.350957 -0.9723 -9.16454
LeftUpLeg  -7.32535 3.39783 1.23584
LeftLeg  5.64955 13.1752 0.447895
LeftFoot  5.20709 -0.0117645 1.34662
LeftToes  -21.6675 1.83942e-006 5.51297e-008
25
root  -36.472 34.7718 8.68859 -170.146 80.5946 -178.74
RightUpLeg  -8.35919 -15.2529 -1.43129
RightLeg  5.90646 -0.884071 -0.0331985
RightFoot  5.55044 0.0229104 0.0571632
RightToes  -25.8248 -0.115833 -0.22003
Spine  -2.1061 0.43037 -0.152045
Spine1  -4.30375 0.96501 0.250923
HEad  -63.7671 -8.50947 7.62551
LeftShoulder1  -1.94126e-019 -3.10601e-018 -2.51263e-017
LeftArm  -10.3102 25.5258 -80.3277
LeftForeArm  33.5601 -14.6291 -2.41274
LeftHand  -0.351397 -1.09884 6.37676
RightShoulder  -4.96962e-017 0 -2.36833e-017
RightArm  -26.4475 -22.8831 77.3166
RightForeArm  54.319 14.5356 1.21454
RightHand  -0.351327 -0.963175 -9.15635
LeftUpLeg  -7.2635 3.30622 1.2051
LeftLeg  5.4419 13.1194 0.398875
LeftFoot  5.29677 -0.0114367 1.36314
LeftToes  -21.6898 1.83942e-006 5.51297e-008
26
root  -36.4637 34.7796 8.68122 -170.324 80.4945 -178.923
RightUpLeg  -8.30184 -15.306 -1.46824
RightLeg  5.85023 -0.926163 -0.0339229
RightFoot  5.54493 0.0227489 0.0594706
RightToes  -25.7663 -0.115548 -0.219619
Spine  -2.11497 0.474805 -0.195439
Spine1  -4.32284 1.05663 0.168241
HEad  -63.8762 -8.69413 7.6245
LeftShoulder1  -1.94126e-019 -3.10601e-018 -2.51263e-017
LeftArm  -9.97113 25.3837 -80.4235
LeftForeArm  33.3534 -15.3077 -2.50553
LeftHand  -0.351525 -1.1577 6.40192
RightShoulder  -4.96962e-017 0 -2.36833e-017
RightArm  -26.2372 -22.6975 77.4366
RightForeArm  54.2049 14.6199 1.20632
RightHand  -0.34948 -0.918793 -9.19178
LeftUpLeg  -7.1644 3.23665 1.1756
LeftLeg  5.23855 13.0839 0.351771
LeftFoot  5.37362 -0.0110987 1.37881
LeftToes  -21.8032 1.83942e-006 5.51297e-008
27
root  -36.4553 34.786 8.67686 -170.521 80.3977 -179.127
RightUpLeg  -8.26386 -15.3214 -1.5055
RightLeg  5.82832 -1.00226 -0.0364143
RightFoot  5.51441 0.0231364 0.0539341
RightToes  -25.7015 -0.115261 -0.219224
Spine  -2.11441 0.492598 -0.228953
Spine1  -4.32269 1.09474 0.107136
HEad  -64.1077 -8.79704 7.58769
LeftShoulder1  -1.94126e-019 -3.10601e-018 -2.51263e-017
LeftArm  -9.50838 25.2786 -80.4824
LeftForeArm  33.016 -16.1494 -2.61514
LeftHand  -0.352212 -1.11949 6.42228
RightShoulder  -4.96962e-017 0 -2.36833e-017
RightArm  -25.8732 -22.5474 77.5292
RightForeArm  53.9743 14.7418 1.19631
RightHand  -0.350785 -0.937059 -9.09246
LeftUpLeg  -7.07771 3.12084 1.14473
LeftLeg  5.05367 13.0957 0.310194
LeftFoot  5.43639 -0.0108946 1.39584
LeftToes  -21.7952 1.83942e-006 5.51297e-008
28
root  -36.4376 34.791 8.67605 -170.715 80.3057 -179.338
RightUpLeg  -8.22697 -15.3185 -1.53894
RightLeg  5.82083 -1.09642 -0.0397903
RightFoot  5.47044 0.0236317 0.0468565
RightToes  -25.6544 -0.114975 -0.218845
Spine  -2.11824 0.490383 -0.257599
Spine1  -4.33099 1.09157 0.0551303
HEad  -64.2541 -8.7367 7.62459
LeftShoulder1  -1.94126e-019 -3.10601e-018 -2.51263e-017
LeftArm  -9.08433 25.1629 -80.5278
LeftForeArm  32.7844 -16.9269 -2.71897
LeftHand  -0.355484 -1.11743 6.48271
RightShoulder  -4.96962e-017 0 -2.36833e-017
RightArm  -25.6965 -22.432 77.656
RightForeArm  53.9039 14.8017 1.19081
RightHand  -0.350482 -0.926388 -9.06266
LeftUpLeg  -7.00866 2.94371 1.11915
LeftLeg  4.91613 13.1944 0.281103
LeftFoot  5.49674 -0.0112467 1.42079
LeftToes  -21.8532 1.83942e-006 5.51297e-008
29
root  -36.4134 34.7944 8.67847 -170.825 80.2516 -179.461
RightUpLeg  -8.19392 -15.2843 -1.55317
RightLeg  5.82685 -1.19032 -0.0434119
RightFoot  5.42986 0.0241419 0.0395663
RightToes  -25.5611 -0.114688 -0.218486
Spine  -2.12792 0.483617 -0.278695
Spine1  -4.35084 1.07827 0.0168902
HEad  -64.3856 -8.70523 7.65117
LeftShoulder1  -1.94126e-019 -3.10601e-018 -2.51263e-017
LeftArm  -8.60575 25.0616 -80.5674
LeftForeArm  32.8558 -17.5348 -2.79703
LeftHand  -0.366536 -1.16972 6.63155
RightShoulder  -4.96962e-017 0 -2.36833e-017
RightArm  -25.5428 -22.4014 77.7801
RightForeArm  53.8778 14.8471 1.18621
RightHand  -0.350433 -0.897179 -9.03377
LeftUpLeg  -6.94834 2.8469 1.11572
LeftLeg  4.83057 13.3139 0.263912
LeftFoot  5.5055 -0.0109833 1.43543
LeftToes  -21.631 1.83942e-006 5.51297e-008
30
root  -36.3814 34.7963 8.68374 -170.861 80.2313 -179.526
RightUpLeg  -8.12411 -15.2496 -1.54865
RightLeg  5.73422 -1.25772 -0.043899
RightFoot  5.44202 0.024589 0.0331776
RightToes  -25.5073 -0.114401 -0.218146
Spine  -2.14966 0.472027 -0.285287
Spine1  -4.39374 1.05395 0.00695279
HEad  -64.4209 -8.65307 7.64645
LeftShoulder1  -1.94126e-019 -3.10601e-018 -2.51263e-017
LeftArm  -8.28162 24.9766 -80.5673
LeftForeArm  32.3282 -18.2128 -2.89704
LeftHand  -0.346614 -1.23257 6.22343
RightShoulder  -4.96962e-017 0 -2.36833e-017
RightArm  -25.4072 -22.4503 77.8697
RightForeArm  53.8201 14.8684 1.18501
RightHand  -0.348885 -0.93615 -9.05226
LeftUpLeg  -6.89854 2.83334 1.1208
LeftLeg  4.7616 13.314 0.248033
LeftFoot  5.51761 -0.0100272 1.43856
LeftToes  -21.5214 1.83942e-006 5.51297e-008
